<svg width="63" height="64" viewBox="-1 -6 63 64" fill="none" xmlns="http://www.w3.org/2000/svg">
<path d="M37.1952 50.3236C39.6081 50.3236 41.7611 49.4322 43.5306 47.7856L57.3396 33.9689C58.9854 32.3223 60 30.0443 60 27.6301V24.9682L58.478 23.4454L33.1367 48.8008C34.1513 49.816 35.4134 50.3236 36.8117 50.3236H37.1952Z" fill="#2DBFFD"/>
<path d="M41.1172 31.4311C39.2116 33.4615 35.9202 33.4615 34.027 31.4311C31.9977 29.4007 30.6119 20.9076 30.6119 20.9076C30.6119 20.9076 39.1002 22.3066 41.1295 24.2009C43.0227 26.3551 43.0227 29.5245 41.1172 31.4311ZM29.7086 4.30533C30.847 3.16632 32.7525 3.16632 33.7672 4.30533L38.197 8.61376H25.2788L29.7086 4.30533ZM53.0331 18.122L50.7439 20.4C49.9891 21.1552 48.7146 21.1552 47.9598 20.4C47.205 19.6448 47.205 18.3696 47.9598 17.6144L50.1129 15.3364L48.5909 13.6898L46.3141 15.9678C45.5593 16.723 44.2848 16.723 43.53 15.9678C42.7752 15.2126 42.7752 13.9374 43.53 13.1822L45.8068 10.9042L43.6538 8.74994H43.1465L43.0227 8.62614L36.3038 1.90351C33.7672 -0.634503 29.721 -0.634503 27.1844 1.90351L20.3417 8.62614L20.2179 8.74994H16.9265L16.4192 9.25755L14.5137 7.35094C14.2662 7.10333 13.7589 7.10333 13.3753 7.35094L6.9162 13.8136C6.66872 14.0612 6.66872 14.5688 6.9162 14.9526L8.82175 16.8592L8.06695 17.4906V19.7686C8.06695 22.3066 9.0816 24.8446 10.9872 26.6151L30.8841 46.6468L56.2255 21.2914L53.0331 18.122Z" fill="#2DBFFD"/>
<path d="M0 40.556C0 44.233 3.04393 47.2786 6.71893 47.2786C10.3939 47.2786 13.4379 44.233 13.4379 40.556C13.4379 36.8789 6.71893 28.2621 6.71893 28.2621C6.71893 28.2621 0 36.8789 0 40.556Z" fill="#2DBFFD"/>
</svg>
