<svg width="63" height="64" viewBox="-1 0 63 64" fill="none" xmlns="http://www.w3.org/2000/svg">
<path d="M6.82927 41.1316L9.12305 38.6814H3.75352C3.3886 38.6814 3.12794 39.0463 3.28434 39.4112L3.90992 40.8188C4.01418 41.0273 4.17057 41.1316 4.3791 41.1316H6.82927Z" fill="#2DBFFD"/>
<path d="M55.8328 40.8188L56.4584 39.4112C56.6147 39.0463 56.3541 38.6814 55.9892 38.6814H50.5154L52.8092 41.1316H55.3115C55.5721 41.1316 55.7806 41.0273 55.8328 40.8188Z" fill="#2DBFFD"/>
<path d="M58.9605 60.9415H52.9654C53.3825 60.6809 53.6431 60.2117 53.6431 59.6904V57.4487H44.8851V59.6904C44.8851 60.2117 45.1457 60.6809 45.5628 60.9415H14.1276C14.5446 60.6809 14.8053 60.2117 14.8053 59.6904V57.4487H5.9951V59.6904C5.9951 60.2117 6.25576 60.6809 6.67281 60.9415H0.78197C0.364919 60.9415 0 61.3064 0 61.7235C0 62.1405 0.364919 62.5055 0.78197 62.5055H59.0127C59.4297 62.5055 59.7946 62.1405 59.7946 61.7235C59.7946 61.3064 59.4297 60.9415 58.9605 60.9415Z" fill="#2DBFFD"/>
<path d="M54.0603 43.9467L44.8851 34.146C44.2074 33.4162 43.2691 33.0513 42.2786 33.0513H17.4641C16.4736 33.0513 15.5352 33.4683 14.8575 34.146L5.68238 43.9467C5.05681 44.5723 4.74402 45.4064 4.74402 46.2926L6.0473 56.4582H53.7996L55.1029 46.2926C54.9986 45.4064 54.6858 44.5723 54.0603 43.9467ZM49.0035 46.9182V48.0651C49.0035 48.3257 48.7429 48.5864 48.4822 48.5864H40.1412C39.7763 48.5864 39.5156 48.2215 39.6199 47.9087V47.8566C39.672 47.648 39.8284 47.5438 40.0369 47.4916L48.3258 46.3969C48.6907 46.3448 49.0035 46.5533 49.0035 46.9182ZM17.5162 35.6578C17.6205 35.5536 17.7768 35.5014 17.9332 35.5014H41.8615C42.0179 35.5014 42.1743 35.5536 42.2786 35.6578L46.3448 40.2975H13.5021L17.5162 35.6578ZM10.8434 46.9182C10.8434 46.6054 11.104 46.3448 11.4168 46.3969L19.7057 47.4916C19.9142 47.5438 20.0706 47.648 20.1228 47.8566V47.9087C20.227 48.2215 19.9664 48.5864 19.6014 48.5864H11.2604C10.9476 48.5864 10.7391 48.3257 10.7391 48.0651V46.9182H10.8434Z" fill="#2DBFFD"/>
<path d="M44.6244 21.843L44.468 16.0043C44.4159 14.1797 43.5296 12.4594 42.1221 11.4168C41.0795 10.6348 39.8804 10.2177 38.6293 10.0613V9.07085C38.6293 4.06624 34.563 0 29.5584 0C24.5538 0 20.4876 4.06624 20.4876 9.07085V23.042H17.6725C16.1607 23.042 14.9617 24.2411 14.9617 25.7529V27.2647C14.9617 27.5775 15.1702 27.786 15.483 27.786H27.004C27.3168 27.786 27.5253 27.5775 27.5253 27.2647V25.7529C27.5253 24.2411 26.3263 23.042 24.8145 23.042H22.0515V9.12298C22.0515 5.00461 25.3879 1.61607 29.5584 1.61607C33.6768 1.61607 37.0654 5.00461 37.0654 9.12298V10.1135C35.8663 10.2699 34.6673 10.6869 33.5726 11.4689C32.165 12.5115 31.2788 14.2319 31.2266 16.0564L31.0702 21.843L30.9139 25.6486C30.9139 26.2221 31.1224 26.7955 31.4873 27.1604C31.8522 27.5253 32.3735 27.7339 32.8948 27.7339H42.7477C43.269 27.7339 43.7903 27.5253 44.1552 27.1604C44.5201 26.7434 44.7808 26.2221 44.7287 25.6486L44.6244 21.843ZM35.0844 22.3643C34.8237 22.3643 34.563 22.1037 34.563 21.843V21.0611C34.563 19.6014 35.7621 18.4545 37.1696 18.4545H38.525C39.9847 18.4545 41.1316 19.6014 41.1316 21.0611V21.843C41.1316 22.1037 40.8709 22.3643 40.6103 22.3643H35.0844Z" fill="#2DBFFD"/>
<path d="M40.0888 21.009V21.2697H35.6055V21.009C35.6055 20.1228 36.3353 19.4451 37.1694 19.4451H38.5248C39.4111 19.4451 40.0888 20.1228 40.0888 21.009Z" fill="#2DBFFD"/>
</svg>
