<svg width="63" height="64" viewBox="-1 -9 63 64" fill="none" xmlns="http://www.w3.org/2000/svg">
<path d="M60.4535 38.8696V44.0554C60.4535 44.5749 60.0379 45 59.5089 45H0.944586C0.425064 45 0 44.5749 0 44.0554V38.8696C0 38.3407 0.425064 37.925 0.944586 37.925H59.5089C60.0379 37.925 60.4535 38.3407 60.4535 38.8696Z" fill="#2DBFFD"/>
<path d="M60.4535 6.89576V12.0815C60.4535 12.6011 60.0379 13.0261 59.5089 13.0261H0.944586C0.425064 13.0261 0 12.6011 0 12.0815V6.89576C0 6.37624 0.425064 5.95117 0.944586 5.95117H59.5089C60.0379 5.95117 60.4535 6.37624 60.4535 6.89576Z" fill="#2DBFFD"/>
<path d="M53.4352 0.944586V4.06172H45.614V0.944586C45.614 0.425064 46.0295 0 46.5586 0H52.4906C53.0196 0 53.4352 0.425064 53.4352 0.944586Z" fill="#2DBFFD"/>
<path d="M14.8489 0.944586V4.06172H7.01831V0.944586C7.01831 0.425064 7.44337 0 7.9629 0H13.9043C14.4239 0 14.8489 0.425064 14.8489 0.944586Z" fill="#2DBFFD"/>
<path d="M30.0883 24.8671C29.9647 24.6222 29.9536 24.3358 30.0579 24.0825L31.7202 20.0422L26.3589 25.2716L29.5542 26.7803C29.7811 26.8873 29.9555 27.0796 30.0403 27.3157C30.1251 27.5514 30.1123 27.8111 30.0053 28.0376L28.6889 30.8266L33.8038 26.1377L30.7007 25.3578C30.4352 25.2909 30.2119 25.112 30.0883 24.8671Z" fill="#2DBFFD"/>
<path d="M2.68262 14.9153V36.0362H57.7803V14.9153H2.68262ZM19.5813 26.9304H13.3281V25.0412H19.5813V26.9304ZM36.376 26.3448L26.4201 35.4695C26.2406 35.6301 26.0139 35.7151 25.7778 35.7151C25.5888 35.7151 25.3905 35.6584 25.2204 35.5356C24.8615 35.2617 24.7293 34.7799 24.9276 34.3738L27.8936 28.0828L24.3231 26.4015C24.0397 26.2692 23.8414 26.0047 23.7941 25.7025C23.7469 25.4002 23.8413 25.0885 24.0681 24.8712L33.6745 15.5009C33.9957 15.1892 34.4963 15.142 34.8647 15.3876C35.2331 15.6426 35.3747 16.1244 35.2047 16.5305L32.2198 23.7944L35.9698 24.7295C36.3004 24.8145 36.5649 25.079 36.6499 25.4191C36.735 25.7591 36.631 26.1086 36.376 26.3448ZM47.1254 26.9304H45.5196V29.1124H43.6304V26.9304H40.8722V25.0412H43.6304V22.8593H45.5196V25.0412H47.1254V26.9304Z" fill="#2DBFFD"/>
</svg>
