<svg width="63" height="64" viewBox="-4 -4 63 64" fill="none" xmlns="http://www.w3.org/2000/svg">
<path d="M36.1205 17.2335C34.1298 15.5037 31.7538 14.3505 29.3136 13.7739C29.7631 18.0023 27.7082 21.7181 24.4974 22.2306C21.2867 22.7432 18.2043 19.7961 17.3053 15.6318C16.2136 16.2725 15.1862 17.0413 14.2871 18.0023C13.3881 18.8992 12.5533 19.9243 11.9111 21.0134C16.0852 21.9103 18.9749 24.9855 18.5254 28.1888C18.0116 31.3921 14.2871 33.4422 10.0489 32.9937C10.6268 35.4282 11.7827 37.7346 13.5165 39.7847C15.6357 36.0689 19.4886 34.275 22.3783 35.7485C25.268 37.2221 26.1028 41.3863 24.3048 45.2944C26.8734 45.4866 29.4421 45.1022 31.818 44.0771C28.9283 40.9379 28.4146 36.7095 30.7264 34.4032C33.0381 32.0968 37.2764 32.6734 40.423 35.4923C41.4504 33.1218 41.8357 30.4951 41.6431 27.9966C37.7259 29.7263 33.5519 28.8935 32.0749 26.0746C30.5979 23.1916 32.396 19.3477 36.1205 17.2335ZM29.2494 32.9937C27.2587 34.9798 23.9837 34.9798 21.993 32.9937C20.0023 31.0077 20.0023 27.7403 21.993 25.7543C23.9837 23.7682 27.2587 23.7682 29.2494 25.7543C31.2401 27.7403 31.2401 30.9436 29.2494 32.9937Z" fill="#2DBFFD"/>
<path d="M25.5913 32.4815C27.3291 32.4815 28.7378 31.076 28.7378 29.3422C28.7378 27.6085 27.3291 26.203 25.5913 26.203C23.8535 26.203 22.4447 27.6085 22.4447 29.3422C22.4447 31.076 23.8535 32.4815 25.5913 32.4815Z" fill="#2DBFFD"/>
<path d="M43.1852 32.0328C42.6715 35.2361 41.0019 39.1441 38.1764 41.963C31.2411 48.8821 20.0033 48.818 13.068 41.963C6.13268 35.0439 6.1969 23.8323 13.1322 16.9132C15.9577 14.0943 19.3611 12.4286 23.2141 11.9161V3.84375C17.4347 4.42034 11.9121 6.85485 7.54543 11.2113C-2.47223 21.2056 -2.53645 37.4784 7.48122 47.4727C17.4989 57.4669 33.7455 57.531 43.7631 47.5367C48.194 43.1802 50.6342 37.7987 51.1479 32.0328H43.1852Z" fill="#2DBFFD"/>
<path d="M46.0737 8.77704C40.1016 2.8189 32.2031 0 24.4972 0V9.35363C30.2766 9.35363 35.2854 11.2756 39.3952 15.3758C43.5051 19.476 45.6242 24.9857 45.6242 30.111H54.9997C54.9997 22.4231 51.9815 14.7352 46.0737 8.77704ZM27.5795 5.70187C26.8732 5.70187 26.3595 5.12528 26.3595 4.48462C26.3595 3.84396 26.9374 3.26736 27.5795 3.26736C28.2217 3.26736 28.7996 3.84396 28.7996 4.48462C28.7996 5.12528 28.2217 5.70187 27.5795 5.70187ZM50.0551 27.4843C49.3487 27.4843 48.835 26.9077 48.835 26.267C48.835 25.6264 49.4129 25.0498 50.0551 25.0498C50.6972 25.0498 51.2752 25.6264 51.2752 26.267C51.2752 26.9077 50.6972 27.4843 50.0551 27.4843Z" fill="#2DBFFD"/>
</svg>
