<svg width="63" height="64" viewBox="-3 -2 63 64" fill="none" xmlns="http://www.w3.org/2000/svg">
<path d="M38.44 50.3069H0V53.2656H1.47781V57.7013C1.47781 58.5168 2.13864 59.1776 2.95716 59.1776H5.9124C6.73015 59.1776 7.39214 58.5168 7.39214 57.7013V53.2656H31.0475V57.7013C31.0475 58.5168 31.708 59.1776 32.5249 59.1776H35.4813C36.2991 59.1776 36.9615 58.5168 36.9615 57.7013V53.2656H38.4393V50.3069H38.44Z" fill="#2DBFFD"/>
<path d="M36.8872 39.4943L32.1333 26.812C32.1333 26.812 22.2637 25.1692 19.2221 25.1692C16.1785 25.1692 6.30848 26.812 6.30848 26.812L1.55311 39.4943C0.556855 39.7719 0.00012207 39.9577 0.00012207 39.9577V48.8288H38.4402V39.9577C38.4402 39.9577 37.8834 39.7719 36.8872 39.4943ZM5.08667 38.4749L8.47719 29.4526C10.7377 29.0887 16.9373 28.1291 19.2217 28.1291C21.5034 28.1291 27.7038 29.0883 29.9642 29.4488L33.347 38.4749C33.347 38.4749 24.383 37.0017 19.2194 37.0017C14.0553 37.0017 5.08667 38.4749 5.08667 38.4749ZM5.91252 45.8724H2.95729V41.4367H5.91252V45.8724ZM35.4818 45.8724H32.5254V41.4367H35.4818V45.8724Z" fill="#2DBFFD"/>
<path d="M55.89 55.6375H43.2451V59.1776H55.89V55.6375Z" fill="#2DBFFD"/>
<path d="M25.5412 8.59863H12.8967V12.1391H25.5412V8.59863Z" fill="#2DBFFD"/>
<path d="M19.98 17.4498C19.98 17.8689 19.6404 18.2086 19.2213 18.2086C18.8026 18.2086 18.4625 17.8689 18.4625 17.4498V14.9206C18.4625 14.5015 18.8022 14.1619 19.2213 14.1619C19.6404 14.1619 19.98 14.5015 19.98 14.9206V17.4498Z" fill="#2DBFFD"/>
<path d="M19.9797 23.0133C19.9797 23.4324 19.64 23.7717 19.2209 23.7717C18.8022 23.7717 18.4622 23.4324 18.4622 23.0133V20.4841C18.4622 20.065 18.8018 19.7253 19.2209 19.7253C19.64 19.7253 19.9797 20.065 19.9797 20.4841V23.0133Z" fill="#2DBFFD"/>
<path d="M15.7821 17.5593C15.6772 17.9653 15.2635 18.2089 14.8576 18.1037C14.452 17.9988 14.2083 17.5843 14.3132 17.1788L14.9466 14.7305C15.0511 14.3245 15.4652 14.0809 15.8704 14.1861C16.2764 14.291 16.52 14.7051 16.4152 15.1103L15.7821 17.5593Z" fill="#2DBFFD"/>
<path d="M14.3888 22.9456C14.2839 23.352 13.8699 23.5956 13.4639 23.4908C13.0583 23.3847 12.8142 22.9714 12.9195 22.5658L13.5529 20.1176C13.6582 19.7112 14.0719 19.4676 14.4775 19.5724C14.8835 19.6781 15.1271 20.0918 15.0219 20.4974L14.3888 22.9456Z" fill="#2DBFFD"/>
<path d="M11.5942 17.4391C11.3594 17.7861 10.8875 17.8767 10.5405 17.6415C10.1943 17.4059 10.1037 16.934 10.3389 16.5878L11.7588 14.4951C11.9936 14.1484 12.4655 14.0578 12.8125 14.2926C13.1595 14.5282 13.2497 14.9997 13.0146 15.3463L11.5942 17.4391Z" fill="#2DBFFD"/>
<path d="M8.47005 22.044C8.23448 22.3906 7.76295 22.4809 7.41635 22.2457C7.06974 22.0105 6.97913 21.5386 7.21432 21.1916L8.63391 19.0992C8.86948 18.7526 9.34178 18.662 9.688 18.8972C10.0346 19.1324 10.1252 19.6039 9.89003 19.9505L8.47005 22.044Z" fill="#2DBFFD"/>
<path d="M22.6591 17.5593C22.7635 17.9653 23.1776 18.2089 23.5836 18.1037C23.9892 17.9988 24.2325 17.5843 24.128 17.1788L23.4945 14.7305C23.3897 14.3245 22.9756 14.0809 22.57 14.1861C22.1636 14.291 21.9207 14.7051 22.0252 15.1103L22.6591 17.5593Z" fill="#2DBFFD"/>
<path d="M24.052 22.9454C24.1565 23.3517 24.5706 23.5954 24.9762 23.4905C25.3818 23.3845 25.6262 22.9712 25.5209 22.5656L24.8875 20.1174C24.7822 19.711 24.3682 19.4673 23.9626 19.5722C23.5566 19.6778 23.3133 20.0915 23.4182 20.4971L24.052 22.9454Z" fill="#2DBFFD"/>
<path d="M26.8473 17.4391C27.0825 17.7861 27.554 17.8767 27.9014 17.6415C28.2476 17.4059 28.3378 16.934 28.1026 16.5878L26.6827 14.4951C26.4482 14.1484 25.9759 14.0578 25.6289 14.2926C25.2823 14.5282 25.1921 14.9997 25.4269 15.3463L26.8473 17.4391Z" fill="#2DBFFD"/>
<path d="M29.9711 22.0438C30.2067 22.3904 30.6786 22.4806 31.0252 22.2454C31.3722 22.0102 31.4624 21.5383 31.2273 21.1913L29.8077 19.099C29.5725 18.7524 29.1002 18.6618 28.7536 18.8969C28.407 19.1321 28.3168 19.6036 28.5516 19.9503L29.9711 22.0438Z" fill="#2DBFFD"/>
<path d="M55.6378 33.1295H51.5907V7.08099H51.5911C51.5903 3.1696 48.4222 0.00115665 44.5105 0H24.2784C20.367 0.00115665 17.1985 3.1696 17.1978 7.08099H21.2445C21.2464 5.4054 22.6035 4.04904 24.2788 4.04672L44.5101 4.04557L44.5108 4.04634C46.186 4.04981 47.5436 5.4054 47.5455 7.08099L47.5459 54.1195H51.5914V40.7155H55.6386V33.1295H55.6378Z" fill="#2DBFFD"/>
</svg>
