<svg width="63" height="64" viewBox="-1 -2 63 64" fill="none" xmlns="http://www.w3.org/2000/svg">
<path d="M34.9963 29.0269H9.46007L5.01122 37.5806H0V41.5962H2.97657V52.9332V55.4944V60.0001H10.8248V55.4944H34.1473V60.0001H41.9993V55.4944V52.9332V41.5962H45.1514V37.5806H39.7997L34.9963 29.0269ZM11.8492 32.444H32.9474L37.0452 39.4433H8.51799L11.8492 32.444ZM8.51799 49.8598C6.6805 49.8598 5.1904 48.3696 5.1904 46.5321C5.1904 44.6945 6.6805 43.2008 8.51799 43.2008C10.3557 43.2008 11.8492 44.6945 11.8492 46.5321C11.8492 48.3696 10.3557 49.8598 8.51799 49.8598ZM35.4225 49.8598C33.5851 49.8598 32.0913 48.3696 32.0913 46.5321C32.0913 44.6945 33.5851 43.2008 35.4225 43.2008C37.2637 43.2008 38.7538 44.6945 38.7538 46.5321C38.7538 48.3696 37.2637 49.8598 35.4225 49.8598Z" fill="#2DBFFD"/>
<path d="M23.8794 17.4821L21.4279 20.2027C21.4279 20.2027 21.4279 20.2027 21.4279 20.2027L24.0194 22.7943L26.7338 20.3352C27.6032 20.885 28.5714 21.2925 29.6059 21.5249L29.7961 25.1813C29.7961 25.1813 29.7961 25.1813 29.7961 25.1813H33.4611H33.4612L33.6417 21.5239C34.676 21.2911 35.6441 20.8831 36.5131 20.3329L39.2337 22.7845L41.8253 20.1929L39.3663 17.4785C39.916 16.6092 40.3235 15.6409 40.5559 14.6064L44.2123 14.4162V10.7512C44.2123 10.7512 44.2123 10.7512 44.2123 10.7512L40.5549 10.5706C40.3221 9.53631 39.9141 8.56823 39.3639 7.69917L41.8154 4.97862C41.8155 4.97862 41.8155 4.97858 41.8154 4.97858L39.2239 2.38706H39.2239L36.5095 4.84606C35.6402 4.2963 34.6719 3.8888 33.6374 3.65643L33.4472 3.97485e-05L33.4472 0H29.7822C29.7822 0 29.7822 2.28959e-08 29.7822 3.97485e-05L29.6017 3.65738C28.5673 3.89027 27.5992 4.29817 26.7302 4.84841L24.0096 2.39688L21.4181 4.9884V4.98844L23.8771 7.70287C23.3273 8.57217 22.9198 9.5404 22.6874 10.5749L19.031 10.7651C19.031 10.7651 19.031 10.7651 19.031 10.7651V14.4301L22.6884 14.6106C22.9212 15.645 23.3292 16.6131 23.8794 17.4821ZM33.4482 8.9902C34.2318 9.34214 34.87 9.98026 35.222 10.7639C36.8304 14.3445 33.3758 17.7994 29.7951 16.1911C29.0115 15.8392 28.3733 15.201 28.0213 14.4175C26.4129 10.8368 29.8675 7.38194 33.4482 8.9902Z" fill="#2DBFFD"/>
<path d="M58.2246 22.4586C58.0296 21.5923 57.6879 20.7814 57.227 20.0535L59.2804 17.7748C59.2804 17.7748 59.2804 17.7748 59.2804 17.7748L57.1098 15.6041H57.1097L54.8362 17.6637C54.108 17.2033 53.297 16.862 52.4305 16.6673L52.2713 13.6047C52.2713 13.6047 52.2713 13.6047 52.2712 13.6047H49.2014L49.0502 16.6681C48.1839 16.8632 47.373 17.2048 46.6451 17.6657L44.3663 15.6123L42.1957 17.783C42.1957 17.783 42.1957 17.783 42.1957 17.783L44.2553 20.0566C43.7948 20.7847 43.4535 21.5957 43.2589 22.4622L40.1963 22.6215H40.1963V25.6913L43.2597 25.8425C43.4548 26.7089 43.7964 27.5197 44.2573 28.2477L42.2039 30.5264V30.5264L44.3746 32.6971L46.6482 30.6374C47.3763 31.0979 48.1873 31.4392 49.0538 31.6338L49.2131 34.6964H52.2829L52.4341 31.633C53.3005 31.438 54.1113 31.0963 54.8393 30.6354L57.118 32.6888L59.2887 30.5182L57.229 28.2446C57.6895 27.5164 58.0308 26.7055 58.2254 25.839L61.288 25.6797V22.6099V22.6098L58.2246 22.4586ZM49.2122 27.1663C48.5559 26.8715 48.0214 26.337 47.7265 25.6807C46.3793 22.6816 49.2729 19.7878 52.2721 21.1349C52.9284 21.4296 53.463 21.9641 53.7578 22.6205C55.105 25.6196 52.2114 28.5134 49.2122 27.1663Z" fill="#2DBFFD"/>
</svg>
